<?xml version="1.0" standalone="no"?>
<svg viewBox="0 0 200 200" xmlns="http://www.w3.org/2000/svg">
  <path fill="#FF0066" d="M34.5,-54C47.3,-45.4,62.2,-40.3,73.1,-29.5C84,-18.7,91,-2.3,88.6,12.6C86.3,27.5,74.5,41,60.7,47C46.8,53,30.7,51.5,17.3,52.6C3.8,53.7,-7,57.3,-18.6,56.9C-30.1,56.4,-42.3,51.8,-51.6,43.4C-60.8,35,-67.1,22.8,-67.8,10.4C-68.5,-1.9,-63.7,-14.4,-58,-26.3C-52.3,-38.2,-45.7,-49.5,-35.9,-59.5C-26,-69.6,-13,-78.3,-1.1,-76.6C10.8,-74.9,21.6,-62.7,34.5,-54Z" transform="translate(100 100)" />
</svg>
